<svg width="14" height="14" viewBox="0 0 14 14" fill="none" xmlns="http://www.w3.org/2000/svg">
<path d="M7.04739 8.44311L2.15805 13.3538C1.97512 13.5375 1.74199 13.6297 1.45865 13.6303C1.17532 13.6309 0.941788 13.5397 0.758056 13.3568C0.574325 13.1739 0.482152 12.9407 0.481536 12.6574C0.48092 12.3741 0.572079 12.1405 0.755014 11.9568L5.64435 7.04616L0.733717 2.15682C0.549986 1.97389 0.457813 1.74075 0.457197 1.45742C0.456581 1.17409 0.54774 0.940555 0.730675 0.756823C0.913609 0.573092 1.14674 0.480919 1.43008 0.480303C1.71341 0.479687 1.94694 0.570846 2.13067 0.753781L7.04131 5.64312L11.9306 0.732484C12.1136 0.548753 12.3467 0.45658 12.63 0.455964C12.9134 0.455348 13.1469 0.546507 13.3306 0.729442C13.5144 0.912376 13.6066 1.14551 13.6072 1.42884C13.6078 1.71218 13.5166 1.94571 13.3337 2.12944L8.44435 7.04008L13.355 11.9294C13.5387 12.1123 13.6309 12.3455 13.6315 12.6288C13.6321 12.9121 13.541 13.1457 13.358 13.3294C13.1751 13.5131 12.942 13.6053 12.6586 13.6059C12.3753 13.6065 12.1418 13.5154 11.958 13.3325L7.04739 8.44311Z" fill="white"/>
</svg>
