<svg width="20" height="14" viewBox="0 0 20 14" fill="none" xmlns="http://www.w3.org/2000/svg">
<path d="M16.347 6.14251C16.4666 5.83043 16.5337 5.48918 16.5337 5.13334C16.5337 3.58751 15.2795 2.33334 13.7337 2.33334C13.1591 2.33334 12.6224 2.50834 12.1791 2.80584C11.3712 1.40584 9.86324 0.466675 8.13366 0.466675C5.55533 0.466675 3.46699 2.55501 3.46699 5.13334C3.46699 5.21209 3.46991 5.29084 3.47283 5.36959C1.83949 5.94418 0.666992 7.50168 0.666992 9.33334C0.666992 11.6521 2.54824 13.5333 4.86699 13.5333H15.6003C17.6624 13.5333 19.3337 11.8621 19.3337 9.80001C19.3337 7.99459 18.0503 6.48668 16.347 6.14251ZM12.4707 8.72959L9.39658 11.8038C9.21574 11.9846 8.91824 11.9846 8.73741 11.8038L5.66324 8.72959C5.36866 8.43501 5.57866 7.93334 5.99283 7.93334H7.90033V4.66668C7.90033 4.41001 8.11033 4.20001 8.36699 4.20001H9.76699C10.0237 4.20001 10.2337 4.41001 10.2337 4.66668V7.93334H12.1412C12.5553 7.93334 12.7653 8.43501 12.4707 8.72959Z" fill="white"/>
</svg>
