<svg width="49" height="48" viewBox="0 0 49 48" fill="none" xmlns="http://www.w3.org/2000/svg">
<rect x="48.5" width="48" height="48" rx="24" transform="rotate(90 48.5 0)" fill="#FFA500"/>
<path d="M11.6985 17.5999L10.6378 16.5392L9.57717 17.5999L10.6378 18.6606L11.6985 17.5999ZM35.7985 20.7999C35.7985 21.6283 36.4701 22.2999 37.2985 22.2999C38.1269 22.2999 38.7985 21.6283 38.7985 20.7999L35.7985 20.7999ZM17.0378 10.1392L10.6378 16.5392L12.7591 18.6606L19.1591 12.2606L17.0378 10.1392ZM10.6378 18.6606L17.0378 25.0606L19.1591 22.9392L12.7591 16.5392L10.6378 18.6606ZM11.6985 19.0999L35.2985 19.0999L35.2985 16.0999L11.6985 16.0999L11.6985 19.0999ZM35.7985 19.5999L35.7985 20.7999L38.7985 20.7999L38.7985 19.5999L35.7985 19.5999ZM35.2985 19.0999C35.5746 19.0999 35.7985 19.3238 35.7985 19.5999L38.7985 19.5999C38.7985 17.6669 37.2315 16.0999 35.2985 16.0999L35.2985 19.0999Z" fill="white"/>
<path d="M37.3015 30.4L38.3622 29.3393L39.4228 30.4L38.3622 31.4607L37.3015 30.4ZM12.1015 30.4L12.1015 31.9L12.1015 30.4ZM8.60152 27.2C8.60152 26.3716 9.27309 25.7 10.1015 25.7C10.9299 25.7 11.6015 26.3716 11.6015 27.2L8.60152 27.2ZM31.9622 22.9393L38.3622 29.3393L36.2409 31.4607L29.8409 25.0607L31.9622 22.9393ZM38.3622 31.4607L31.9622 37.8607L29.8409 35.7393L36.2409 29.3393L38.3622 31.4607ZM37.3015 31.9L12.1015 31.9L12.1015 28.9L37.3015 28.9L37.3015 31.9ZM8.60152 28.4L8.60152 27.2L11.6015 27.2L11.6015 28.4L8.60152 28.4ZM12.1015 31.9C10.1685 31.9 8.60152 30.333 8.60152 28.4L11.6015 28.4C11.6015 28.6761 11.8254 28.9 12.1015 28.9L12.1015 31.9Z" fill="white"/>
</svg>
