<svg width="49" height="48" viewBox="0 0 49 48" fill="none" xmlns="http://www.w3.org/2000/svg">
<path d="M24.5 0C30.8652 0 36.9697 2.52856 41.4706 7.02944C45.9714 11.5303 48.5 17.6348 48.5 24C48.5 30.3652 45.9714 36.4697 41.4706 40.9706C36.9697 45.4714 30.8652 48 24.5 48C18.1348 48 12.0303 45.4714 7.52944 40.9706C3.02856 36.4697 0.5 30.3652 0.5 24C0.5 17.6348 3.02856 11.5303 7.52944 7.02944C12.0303 2.52856 18.1348 0 24.5 0ZM24.5 10.2857C24.0647 10.2853 23.6341 10.3757 23.2357 10.5512C22.8373 10.7266 22.4799 10.9832 22.1863 11.3045C21.8927 11.6259 21.6693 12.005 21.5305 12.4175C21.3917 12.8301 21.3404 13.2671 21.38 13.7006L22.6314 27.4354C22.6799 27.8972 22.8977 28.3246 23.2428 28.6353C23.5878 28.946 24.0357 29.118 24.5 29.118C24.9643 29.118 25.4122 28.946 25.7572 28.6353C26.1023 28.3246 26.3201 27.8972 26.3686 27.4354L27.6166 13.7006C27.6561 13.2674 27.605 12.8307 27.4663 12.4183C27.3277 12.006 27.1047 11.6271 26.8114 11.3058C26.5182 10.9845 26.1612 10.7278 25.7632 10.5522C25.3652 10.3766 24.935 10.2858 24.5 10.2857ZM24.5 37.7143C25.2275 37.7143 25.9251 37.4253 26.4395 36.9109C26.9539 36.3965 27.2429 35.6989 27.2429 34.9714C27.2429 34.244 26.9539 33.5463 26.4395 33.0319C25.9251 32.5176 25.2275 32.2286 24.5 32.2286C23.7725 32.2286 23.0749 32.5176 22.5605 33.0319C22.0461 33.5463 21.7571 34.244 21.7571 34.9714C21.7571 35.6989 22.0461 36.3965 22.5605 36.9109C23.0749 37.4253 23.7725 37.7143 24.5 37.7143Z" fill="#7DBD42"/>
<path d="M24.5 10.2857C24.0647 10.2853 23.6341 10.3757 23.2357 10.5512C22.8373 10.7266 22.4799 10.9832 22.1863 11.3045C21.8927 11.6259 21.6693 12.005 21.5305 12.4175C21.3917 12.8301 21.3404 13.2671 21.38 13.7006L22.6314 27.4354C22.6799 27.8972 22.8977 28.3246 23.2428 28.6353C23.5878 28.946 24.0357 29.118 24.5 29.118C24.9643 29.118 25.4122 28.946 25.7572 28.6353C26.1023 28.3246 26.3201 27.8972 26.3686 27.4354L27.6166 13.7006C27.6561 13.2674 27.605 12.8307 27.4663 12.4183C27.3277 12.006 27.1047 11.6271 26.8114 11.3058C26.5182 10.9845 26.1612 10.7278 25.7632 10.5522C25.3652 10.3766 24.935 10.2858 24.5 10.2857Z" fill="white"/>
<path d="M24.5 37.7143C25.2275 37.7143 25.9251 37.4253 26.4395 36.9109C26.9539 36.3965 27.2429 35.6989 27.2429 34.9714C27.2429 34.244 26.9539 33.5463 26.4395 33.0319C25.9251 32.5176 25.2275 32.2286 24.5 32.2286C23.7725 32.2286 23.0749 32.5176 22.5605 33.0319C22.0461 33.5463 21.7571 34.244 21.7571 34.9714C21.7571 35.6989 22.0461 36.3965 22.5605 36.9109C23.0749 37.4253 23.7725 37.7143 24.5 37.7143Z" fill="white"/>
</svg>
