<svg width="49" height="48" viewBox="0 0 49 48" fill="none" xmlns="http://www.w3.org/2000/svg">
<path d="M24.5 0C19.7533 0 15.1131 1.40757 11.1663 4.04473C7.21954 6.68188 4.1434 10.4302 2.3269 14.8156C0.510399 19.201 0.0351189 24.0266 0.961164 28.6822C1.88721 33.3377 4.17299 37.6141 7.52945 40.9706C10.8859 44.327 15.1623 46.6128 19.8178 47.5388C24.4734 48.4649 29.299 47.9896 33.6844 46.1731C38.0698 44.3566 41.8181 41.2805 44.4553 37.3337C47.0924 33.3869 48.5 28.7467 48.5 24C48.5 17.6348 45.9714 11.5303 41.4706 7.02944C36.9697 2.52856 30.8652 0 24.5 0ZM36.5 25.3333H12.5C12.1464 25.3333 11.8072 25.1929 11.5572 24.9428C11.3072 24.6928 11.1667 24.3536 11.1667 24C11.1667 23.6464 11.3072 23.3072 11.5572 23.0572C11.8072 22.8071 12.1464 22.6667 12.5 22.6667H36.5C36.8536 22.6667 37.1928 22.8071 37.4428 23.0572C37.6929 23.3072 37.8333 23.6464 37.8333 24C37.8333 24.3536 37.6929 24.6928 37.4428 24.9428C37.1928 25.1929 36.8536 25.3333 36.5 25.3333Z" fill="#FF0000"/>
<path d="M36.5 25.3333H12.5C12.1464 25.3333 11.8072 25.1929 11.5572 24.9428C11.3072 24.6928 11.1667 24.3536 11.1667 24C11.1667 23.6464 11.3072 23.3072 11.5572 23.0572C11.8072 22.8071 12.1464 22.6667 12.5 22.6667H36.5C36.8536 22.6667 37.1928 22.8071 37.4428 23.0572C37.6929 23.3072 37.8333 23.6464 37.8333 24C37.8333 24.3536 37.6929 24.6928 37.4428 24.9428C37.1928 25.1929 36.8536 25.3333 36.5 25.3333Z" fill="white"/>
</svg>
