<svg width="75" height="76" viewBox="0 0 75 76" fill="none" xmlns="http://www.w3.org/2000/svg">
<path d="M75 38C75 47.9456 71.0491 57.4839 64.0165 64.5165C56.9839 71.5491 47.4456 75.5 37.5 75.5C27.5544 75.5 18.0161 71.5491 10.9835 64.5165C3.95088 57.4839 0 47.9456 0 38C0 28.0544 3.95088 18.5161 10.9835 11.4835C18.0161 4.45088 27.5544 0.5 37.5 0.5C47.4456 0.5 56.9839 4.45088 64.0165 11.4835C71.0491 18.5161 75 28.0544 75 38ZM56.3906 23.7969C56.0558 23.4632 55.6571 23.2005 55.2184 23.0245C54.7797 22.8484 54.3101 22.7626 53.8375 22.7722C53.3649 22.7819 52.8991 22.8867 52.4679 23.0805C52.0367 23.2743 51.6491 23.553 51.3281 23.9L35.0484 44.6422L25.2375 34.8266C24.5711 34.2056 23.6896 33.8675 22.7788 33.8836C21.868 33.8996 20.999 34.2686 20.3549 34.9127C19.7108 35.5568 19.3418 36.4258 19.3257 37.3366C19.3097 38.2474 19.6478 39.1289 20.2688 39.7953L32.6719 52.2031C33.006 52.5367 33.4039 52.7995 33.8418 52.9759C34.2797 53.1523 34.7487 53.2387 35.2207 53.23C35.6927 53.2212 36.1581 53.1175 36.5892 52.925C37.0203 52.7324 37.4081 52.4551 37.7297 52.1094L56.4422 28.7188C57.0801 28.0555 57.4325 27.1685 57.4238 26.2482C57.415 25.328 57.0458 24.4479 56.3953 23.7969H56.3906Z" fill="#7DBD42"/>
</svg>
